<?xml version="1.0" standalone="no"?>
<!DOCTYPE svg PUBLIC "-//W3C//DTD SVG 20010904//EN"
 "http://www.w3.org/TR/2001/REC-SVG-20010904/DTD/svg10.dtd">
<svg version="1.0" xmlns="http://www.w3.org/2000/svg"
 width="256.000000pt" height="256.000000pt" viewBox="0 0 256.000000 256.000000"
 preserveAspectRatio="xMidYMid meet">

<g transform="translate(0.000000,256.000000) scale(0.100000,-0.100000)"
fill="#000000" stroke="none">
<path d="M1258 2085 c-188 -31 -322 -97 -445 -220 -146 -148 -213 -329 -213
-582 0 -67 6 -155 14 -195 43 -223 167 -405 345 -506 142 -80 278 -112 469
-112 275 0 501 91 527 210 17 79 -21 170 -85 202 -50 26 -104 22 -192 -12
-194 -75 -400 -56 -519 48 -134 117 -170 424 -74 626 33 70 108 138 183 167
120 46 300 35 437 -26 80 -35 135 -34 179 5 85 75 90 207 10 282 -101 95 -412
150 -636 113z"/>
</g>
</svg>
